<?xml version="1.0" standalone="no"?>
<!DOCTYPE svg PUBLIC "-//W3C//DTD SVG 1.1//EN" "http://www.w3.org/Graphics/SVG/1.1/DTD/svg11.dtd" >
<svg xmlns="http://www.w3.org/2000/svg">
<metadata>
This is a custom SVG webfont generated by Font Squirrel.
Copyright   : Copyright Hangedman Design 2010
Designer    : Hangedman Design
Foundry     : httpfontstructcom
Foundry URL : httpwwwfontshopcom
</metadata>
<defs>
<font id="webfont1SA3Sn0O" horiz-adv-x="2048" >
<font-face units-per-em="2048" ascent="1638" descent="-410" />
<missing-glyph horiz-adv-x="500" />
<glyph unicode=" " />
<glyph unicode="!" d="M0 0v512h512v-512h-512zM512 512v1024h1024v-1024h-1024z" />
<glyph unicode="&#x22;" d="M0 512v1024h512v-1024h-512zM1024 512v1024h512v-1024h-512z" />
<glyph unicode="#" d="M512 0v512h512v-512h-512zM0 512v512h512v-512h-512zM1024 512v512h512v-512h-512zM512 1024v512h512v-512h-512z" />
<glyph unicode="$" d="M0 0v512h512v1024h1024v-512h-512v-1024h-1024z" />
<glyph unicode="%" d="M512 0v512h512v512h512v-1024h-1024zM0 512v1024h1024v-512h-512v-512h-512z" />
<glyph unicode="&#x26;" d="M512 0v512h-512v512h512v512h512v-512h512v-512h-512v-512h-512z" />
<glyph unicode="'" horiz-adv-x="1024" d="M0 512v1024h512v-1024h-512z" />
<glyph unicode="(" horiz-adv-x="1536" d="M512 0v512h512v-512h-512zM0 512v512h512v-512h-512zM512 1024v512h512v-512h-512z" />
<glyph unicode=")" horiz-adv-x="1536" d="M0 0v512h512v-512h-512zM512 512v512h512v-512h-512zM0 1024v512h512v-512h-512z" />
<glyph unicode="*" horiz-adv-x="1536" d="M0 512v1024h1024v-1024h-1024z" />
<glyph unicode="+" d="M512 0v512h-512v512h512v512h512v-512h512v-512h-512v-512h-512z" />
<glyph unicode="," horiz-adv-x="1024" d="M0 0v1024h512v-1024h-512z" />
<glyph unicode="-" d="M0 512v512h1536v-512h-1536z" />
<glyph unicode="." horiz-adv-x="1024" d="M0 0v512h512v-512h-512z" />
<glyph unicode="/" d="M0 0v512h512v-512h-512zM512 512v512h512v-512h-512zM1024 1024v512h512v-512h-512z" />
<glyph unicode="0" d="M1024 512v512h-512v-512h512zM0 0v1536h1536v-1536h-1536z" />
<glyph unicode="1" horiz-adv-x="1024" d="M0 0v1536h512v-1536h-512z" />
<glyph unicode="2" d="M512 0v512h-512v1024h1024v-512h512v-1024h-1024z" />
<glyph unicode="3" d="M0 0v512h512v512h-512v512h1536v-1536h-1536z" />
<glyph unicode="4" d="M1024 0v512h-1024v1024h512v-512h512v512h512v-1536h-512z" />
<glyph unicode="5" d="M0 0v1024h512v512h1024v-1024h-512v-512h-1024z" />
<glyph unicode="6" d="M0 0v1536h512v-512h1024v-1024h-1536z" />
<glyph unicode="7" d="M1024 0v1024h-1024v512h1536v-1536h-512z" />
<glyph unicode="8" d="M0 0v1536h1536v-1536h-1536z" />
<glyph unicode="9" d="M1024 0v512h-1024v1024h1536v-1536h-512z" />
<glyph unicode=":" horiz-adv-x="1024" d="M0 0v512h512v-512h-512zM0 1024v512h512v-512h-512z" />
<glyph unicode=";" horiz-adv-x="1536" d="M0 0v512h512v-512h-512zM512 512v1024h512v-1024h-512z" />
<glyph unicode="&#x3c;" d="M512 0v512h1024v-512h-1024zM0 512v512h512v-512h-512zM512 1024v512h1024v-512h-1024z" />
<glyph unicode="=" d="M0 0v512h1536v-512h-1536zM0 1024v512h1536v-512h-1536z" />
<glyph unicode="&#x3e;" d="M0 0v512h1024v-512h-1024zM1024 512v512h512v-512h-512zM0 1024v512h1024v-512h-1024z" />
<glyph unicode="?" d="M512 0v512h512v-512h-512zM1024 512v512h-1024v512h1536v-1024h-512z" />
<glyph unicode="@" d="M0 512v512h512v-512h-512zM512 0v512h512v512h512v-1024h-1024zM512 1024v512h512v-512h-512z" />
<glyph unicode="A" d="M0 0v1024h512v-512h512v512h-512v512h1024v-1536h-1536z" />
<glyph unicode="B" d="M0 0v1536h512v-512h1024v-1024h-1536z" />
<glyph unicode="C" d="M0 0v1536h1536v-512h-1024v-512h1024v-512h-1536z" />
<glyph unicode="D" d="M0 0v1536h1024v-512h-512v-512h512v512h512v-1024h-1536z" />
<glyph unicode="E" d="M0 0v1536h1536v-1024h-512v-512h-1024z" />
<glyph unicode="F" d="M0 0v1536h1536v-512h-512v-512h-512v-512h-512z" />
<glyph unicode="G" d="M0 0v1536h1024v-512h512v-1024h-1536z" />
<glyph unicode="H" d="M0 0v1536h512v-512h512v512h512v-1536h-512v512h-512v-512h-512z" />
<glyph unicode="I" horiz-adv-x="1024" d="M0 0v1536h512v-1536h-512z" />
<glyph unicode="J" horiz-adv-x="1536" d="M0 0v512h512v1024h512v-1536h-1024z" />
<glyph unicode="K" d="M1024 0v512h512v-512h-512zM0 0v1536h512v-512h512v-512h-512v-512h-512zM1024 1024v512h512v-512h-512z" />
<glyph unicode="L" d="M0 0v1536h512v-1024h1024v-512h-1536z" />
<glyph unicode="M" d="M0 0v1536h1536v-1536h-512v1024h-512v-1024h-512z" />
<glyph unicode="N" d="M1024 0v1024h512v-1024h-512zM0 0v1536h1024v-512h-512v-1024h-512z" />
<glyph unicode="O" d="M1024 512v512h-512v-512h512zM0 0v1536h1536v-1536h-1536z" />
<glyph unicode="P" d="M0 0v1536h1536v-1024h-1024v-512h-512z" />
<glyph unicode="Q" d="M0 0v1536h1536v-1024h-512v512h-512v-512h512v-512h-1024z" />
<glyph unicode="R" d="M1024 0v512h512v-512h-512zM0 0v1536h1536v-512h-512v-512h-512v-512h-512z" />
<glyph unicode="S" d="M0 0v1024h512v512h1024v-1024h-512v-512h-1024z" />
<glyph unicode="T" d="M512 0v1024h-512v512h1536v-512h-512v-1024h-512z" />
<glyph unicode="U" d="M0 0v1536h512v-1024h512v1024h512v-1536h-1536z" />
<glyph unicode="V" d="M512 0v512h512v-512h-512zM0 512v1024h512v-1024h-512zM1024 512v1024h512v-1024h-512z" />
<glyph unicode="W" d="M0 512v1024h512v-1024h-512zM512 0v512h512v1024h512v-1536h-1024z" />
<glyph unicode="X" d="M0 0v512h512v-512h-512zM1024 0v512h512v-512h-512zM512 512v512h512v-512h-512zM0 1024v512h512v-512h-512zM1024 1024v512h512v-512h-512z" />
<glyph unicode="Y" d="M512 0v512h-512v1024h512v-512h512v512h512v-1024h-512v-512h-512z" />
<glyph unicode="Z" d="M512 0v512h-512v1024h1024v-512h512v-1024h-1024z" />
<glyph unicode="[" horiz-adv-x="1536" d="M0 0v1536h1024v-512h-512v-512h512v-512h-1024z" />
<glyph unicode="\" d="M1024 0v512h512v-512h-512zM512 512v512h512v-512h-512zM0 1024v512h512v-512h-512z" />
<glyph unicode="]" horiz-adv-x="1536" d="M0 0v512h512v512h-512v512h1024v-1536h-1024z" />
<glyph unicode="^" d="M0 512v512h512v-512h-512zM1024 512v512h512v-512h-512zM512 1024v512h512v-512h-512z" />
<glyph unicode="_" d="M0 0v512h1536v-512h-1536z" />
<glyph unicode="`" horiz-adv-x="1024" d="M0 512v1024h512v-1024h-512z" />
<glyph unicode="a" d="M0 0v1024h512v-512h512v512h-512v512h1024v-1536h-1536z" />
<glyph unicode="b" d="M0 0v1536h512v-512h1024v-1024h-1536z" />
<glyph unicode="c" d="M0 0v1536h1536v-512h-1024v-512h1024v-512h-1536z" />
<glyph unicode="d" d="M0 0v1536h1024v-512h-512v-512h512v512h512v-1024h-1536z" />
<glyph unicode="e" d="M0 0v1536h1536v-1024h-512v-512h-1024z" />
<glyph unicode="f" d="M0 0v1536h1536v-512h-512v-512h-512v-512h-512z" />
<glyph unicode="g" d="M0 0v1536h1024v-512h512v-1024h-1536z" />
<glyph unicode="h" d="M0 0v1536h512v-512h512v512h512v-1536h-512v512h-512v-512h-512z" />
<glyph unicode="i" horiz-adv-x="1024" d="M0 0v1536h512v-1536h-512z" />
<glyph unicode="j" horiz-adv-x="1536" d="M0 0v512h512v1024h512v-1536h-1024z" />
<glyph unicode="k" d="M1024 0v512h512v-512h-512zM0 0v1536h512v-512h512v-512h-512v-512h-512zM1024 1024v512h512v-512h-512z" />
<glyph unicode="l" d="M0 0v1536h512v-1024h1024v-512h-1536z" />
<glyph unicode="m" d="M0 0v1536h1536v-1536h-512v1024h-512v-1024h-512z" />
<glyph unicode="n" d="M1024 0v1024h512v-1024h-512zM0 0v1536h1024v-512h-512v-1024h-512z" />
<glyph unicode="o" d="M1024 512v512h-512v-512h512zM0 0v1536h1536v-1536h-1536z" />
<glyph unicode="p" d="M0 0v1536h1536v-1024h-1024v-512h-512z" />
<glyph unicode="q" d="M0 0v1536h1536v-1024h-512v512h-512v-512h512v-512h-1024z" />
<glyph unicode="r" d="M1024 0v512h512v-512h-512zM0 0v1536h1536v-512h-512v-512h-512v-512h-512z" />
<glyph unicode="s" d="M0 0v1024h512v512h1024v-1024h-512v-512h-1024z" />
<glyph unicode="t" d="M512 0v1024h-512v512h1536v-512h-512v-1024h-512z" />
<glyph unicode="u" d="M0 0v1536h512v-1024h512v1024h512v-1536h-1536z" />
<glyph unicode="v" d="M512 0v512h512v-512h-512zM0 512v1024h512v-1024h-512zM1024 512v1024h512v-1024h-512z" />
<glyph unicode="w" d="M0 512v1024h512v-1024h-512zM512 0v512h512v1024h512v-1536h-1024z" />
<glyph unicode="x" d="M0 0v512h512v-512h-512zM1024 0v512h512v-512h-512zM512 512v512h512v-512h-512zM0 1024v512h512v-512h-512zM1024 1024v512h512v-512h-512z" />
<glyph unicode="y" d="M512 0v512h-512v1024h512v-512h512v512h512v-1024h-512v-512h-512z" />
<glyph unicode="z" d="M512 0v512h-512v1024h1024v-512h512v-1024h-1024z" />
<glyph unicode="{" d="M512 0v512h-512v512h512v512h1024v-512h-512v-512h512v-512h-1024z" />
<glyph unicode="|" d="M0 0v1536h512v-1536h-512zM1024 0v1536h512v-1536h-512z" />
<glyph unicode="}" d="M0 0v512h512v512h-512v512h1024v-512h512v-512h-512v-512h-1024z" />
<glyph unicode="~" d="M0 0v1024h1024v512h512v-1024h-1024v-512h-512z" />
<glyph unicode="&#xa0;" />
<glyph unicode="&#xaa;" d="M0 0v1024h512v-512h512v512h-512v512h1024v-1536h-1536z" />
<glyph unicode="&#xad;" d="M0 512v512h1536v-512h-1536z" />
<glyph unicode="&#xb2;" d="M512 0v512h-512v1024h1024v-512h512v-1024h-1024z" />
<glyph unicode="&#xb3;" d="M0 0v512h512v512h-512v512h1536v-1536h-1536z" />
<glyph unicode="&#xb9;" horiz-adv-x="1024" d="M0 0v1536h512v-1536h-512z" />
<glyph unicode="&#xba;" d="M1024 512v512h-512v-512h512zM0 0v1536h1536v-1536h-1536z" />
<glyph unicode="&#xc0;" d="M512 1658v1024h512v-1024h-512zM0 0v1024h512v-512h512v512h-512v512h1024v-1536h-1536z" />
<glyph unicode="&#xc2;" d="M256 1658v512h512v-512h-512zM1280 1658v512h512v-512h-512zM768 2170v512h512v-512h-512zM0 0v1024h512v-512h512v512h-512v512h1024v-1536h-1536z" />
<glyph unicode="&#xc3;" d="M256 1658v1024h1024v512h512v-1024h-1024v-512h-512zM0 0v1024h512v-512h512v512h-512v512h1024v-1536h-1536z" />
<glyph unicode="&#xc8;" d="M256 1658v1024h512v-1024h-512zM0 0v1536h1536v-1024h-512v-512h-1024z" />
<glyph unicode="&#xca;" d="M0 1658v512h512v-512h-512zM1024 1658v512h512v-512h-512zM512 2170v512h512v-512h-512zM0 0v1536h1536v-1024h-512v-512h-1024z" />
<glyph unicode="&#xcc;" horiz-adv-x="1024" d="M-256 1658v1024h512v-1024h-512zM0 0v1536h512v-1536h-512z" />
<glyph unicode="&#xce;" horiz-adv-x="1024" d="M-512 1658v512h512v-512h-512zM512 1658v512h512v-512h-512zM0 2170v512h512v-512h-512zM0 0v1536h512v-1536h-512z" />
<glyph unicode="&#xd1;" d="M-256 1658v1024h1024v512h512v-1024h-1024v-512h-512zM1024 0v1024h512v-1024h-512zM0 0v1536h1024v-512h-512v-1024h-512z" />
<glyph unicode="&#xd2;" d="M256 1658v1024h512v-1024h-512zM1024 512v512h-512v-512h512zM0 0v1536h1536v-1536h-1536z" />
<glyph unicode="&#xd4;" d="M0 1658v512h512v-512h-512zM1024 1658v512h512v-512h-512zM512 2170v512h512v-512h-512zM1024 512v512h-512v-512h512zM0 0v1536h1536v-1536h-1536z" />
<glyph unicode="&#xd5;" d="M0 1658v1024h1024v512h512v-1024h-1024v-512h-512zM1024 512v512h-512v-512h512zM0 0v1536h1536v-1536h-1536z" />
<glyph unicode="&#xd9;" d="M256 1658v1024h512v-1024h-512zM0 0v1536h512v-1024h512v1024h512v-1536h-1536z" />
<glyph unicode="&#xdb;" d="M0 1658v512h512v-512h-512zM1024 1658v512h512v-512h-512zM512 2170v512h512v-512h-512zM0 0v1536h512v-1024h512v1024h512v-1536h-1536z" />
<glyph unicode="&#xe0;" d="M512 1658v1024h512v-1024h-512zM0 0v1024h512v-512h512v512h-512v512h1024v-1536h-1536z" />
<glyph unicode="&#xe2;" d="M256 1658v512h512v-512h-512zM1280 1658v512h512v-512h-512zM768 2170v512h512v-512h-512zM0 0v1024h512v-512h512v512h-512v512h1024v-1536h-1536z" />
<glyph unicode="&#xe3;" d="M256 1658v1024h1024v512h512v-1024h-1024v-512h-512zM0 0v1024h512v-512h512v512h-512v512h1024v-1536h-1536z" />
<glyph unicode="&#xe8;" d="M256 1658v1024h512v-1024h-512zM0 0v1536h1536v-1024h-512v-512h-1024z" />
<glyph unicode="&#xea;" d="M0 1658v512h512v-512h-512zM1024 1658v512h512v-512h-512zM512 2170v512h512v-512h-512zM0 0v1536h1536v-1024h-512v-512h-1024z" />
<glyph unicode="&#xec;" horiz-adv-x="1024" d="M-256 1658v1024h512v-1024h-512zM0 0v1536h512v-1536h-512z" />
<glyph unicode="&#xee;" horiz-adv-x="1024" d="M-512 1658v512h512v-512h-512zM512 1658v512h512v-512h-512zM0 2170v512h512v-512h-512zM0 0v1536h512v-1536h-512z" />
<glyph unicode="&#xf1;" d="M0 1658v1024h1024v512h512v-1024h-1024v-512h-512zM1024 0v1024h512v-1024h-512zM0 0v1536h1024v-512h-512v-1024h-512z" />
<glyph unicode="&#xf2;" d="M256 1658v1024h512v-1024h-512zM1024 512v512h-512v-512h512zM0 0v1536h1536v-1536h-1536z" />
<glyph unicode="&#xf4;" d="M0 1658v512h512v-512h-512zM1024 1658v512h512v-512h-512zM512 2170v512h512v-512h-512zM1024 512v512h-512v-512h512zM0 0v1536h1536v-1536h-1536z" />
<glyph unicode="&#xf5;" d="M0 1658v1024h1024v512h512v-1024h-1024v-512h-512zM1024 512v512h-512v-512h512zM0 0v1536h1536v-1536h-1536z" />
<glyph unicode="&#xf9;" d="M256 1658v1024h512v-1024h-512zM0 0v1536h512v-1024h512v1024h512v-1536h-1536z" />
<glyph unicode="&#xfb;" d="M0 1658v512h512v-512h-512zM1024 1658v512h512v-512h-512zM512 2170v512h512v-512h-512zM0 0v1536h512v-1024h512v1024h512v-1536h-1536z" />
<glyph unicode="&#x152;" horiz-adv-x="4096" d="M2048 0v1536h1536v-1024h-512v-512h-1024zM1024 512v512h-512v-512h512zM0 0v1536h1536v-1536h-1536z" />
<glyph unicode="&#x153;" horiz-adv-x="4096" d="M2048 0v1536h1536v-1024h-512v-512h-1024zM1024 512v512h-512v-512h512zM0 0v1536h1536v-1536h-1536z" />
<glyph unicode="&#x2c6;" d="M0 512v512h512v-512h-512zM1024 512v512h512v-512h-512zM512 1024v512h512v-512h-512z" />
<glyph unicode="&#x2dc;" d="M-768 122v1024h1024v512h512v-1024h-1024v-512h-512z" />
<glyph unicode="&#x2000;" horiz-adv-x="1596" />
<glyph unicode="&#x2001;" horiz-adv-x="3194" />
<glyph unicode="&#x2002;" horiz-adv-x="1596" />
<glyph unicode="&#x2003;" horiz-adv-x="3194" />
<glyph unicode="&#x2004;" horiz-adv-x="1064" />
<glyph unicode="&#x2005;" horiz-adv-x="798" />
<glyph unicode="&#x2006;" horiz-adv-x="532" />
<glyph unicode="&#x2007;" horiz-adv-x="532" />
<glyph unicode="&#x2008;" horiz-adv-x="398" />
<glyph unicode="&#x2009;" horiz-adv-x="638" />
<glyph unicode="&#x200a;" horiz-adv-x="176" />
<glyph unicode="&#x2010;" d="M0 512v512h1536v-512h-1536z" />
<glyph unicode="&#x2011;" d="M0 512v512h1536v-512h-1536z" />
<glyph unicode="&#x2012;" d="M0 512v512h1536v-512h-1536z" />
<glyph unicode="&#x2013;" horiz-adv-x="1024" d="M0 512v512h512v-512h-512z" />
<glyph unicode="&#x2014;" d="M0 512v512h1536v-512h-1536z" />
<glyph unicode="&#x2018;" horiz-adv-x="1024" d="M0 512v1024h512v-1024h-512z" />
<glyph unicode="&#x2019;" horiz-adv-x="1024" d="M0 512v1024h512v-1024h-512z" />
<glyph unicode="&#x201c;" d="M0 512v1024h512v-1024h-512zM1024 512v1024h512v-1024h-512z" />
<glyph unicode="&#x201d;" d="M0 512v1024h512v-1024h-512zM1024 512v1024h512v-1024h-512z" />
<glyph unicode="&#x2026;" horiz-adv-x="3072" d="M2048 0v512h512v-512h-512zM1024 0v512h512v-512h-512zM0 0v512h512v-512h-512z" />
<glyph unicode="&#x202f;" horiz-adv-x="638" />
<glyph unicode="&#x2039;" d="M512 0v512h1024v-512h-1024zM0 512v512h512v-512h-512zM512 1024v512h1024v-512h-1024z" />
<glyph unicode="&#x203a;" d="M0 0v512h1024v-512h-1024zM1024 512v512h512v-512h-512zM0 1024v512h1024v-512h-1024z" />
<glyph unicode="&#x205f;" horiz-adv-x="798" />
<glyph unicode="&#x2122;" horiz-adv-x="4096" d="M2048 0v1536h1536v-1536h-512v1024h-512v-1024h-512zM512 0v1024h-512v512h1536v-512h-512v-1024h-512z" />
<glyph unicode="&#xe000;" horiz-adv-x="1535" d="M0 1535h1535v-1535h-1535v1535z" />
<glyph unicode="&#xfb01;" horiz-adv-x="3072" d="M2048 0v1536h512v-1536h-512zM0 0v1536h1536v-512h-512v-512h-512v-512h-512z" />
<glyph unicode="&#xfb02;" horiz-adv-x="4096" d="M2048 0v1536h512v-1024h1024v-512h-1536zM0 0v1536h1536v-512h-512v-512h-512v-512h-512z" />
<glyph unicode="&#xfb03;" horiz-adv-x="5120" d="M4096 0v1536h512v-1536h-512zM2048 0v1536h1536v-512h-512v-512h-512v-512h-512zM0 0v1536h1536v-512h-512v-512h-512v-512h-512z" />
<glyph unicode="&#xfb04;" horiz-adv-x="6144" d="M4096 0v1536h512v-1024h1024v-512h-1536zM2048 0v1536h1536v-512h-512v-512h-512v-512h-512zM0 0v1536h1536v-512h-512v-512h-512v-512h-512z" />
</font>
</defs>
</svg>
